# xmcd CD database file
#
# Track frame offsets:
#	150
#	12087
#	23992
#	33785
#	44347
#	59792
#	77550
#	87932
#	99655
#	111175
#	121960
#	131677
#	142897
#	153592
#	163880
#	176925
#	186622
#	199355
#	213912
#	224467
#
# Disc length: 3140 seconds
#
# Revision: 1
# Processed by: cddbd v1.5.2PL0 Copyright (c) Steve Scherf et al.
# Submitted via: CDex 1.40PlusFr
#
DISCID=290c4214
DTITLE=COUNTRY MUSIC COMPILATION - Country Saloon - 20 Drinkin' Country Classics
DYEAR=1998
DGENRE=Country
TTITLE0=MERLE HAGGARD - Little Ole Wine Drinker Me
TTITLE1=WANDA JACKSON - A Girl Don't Have To Drink To Have Fun
TTITLE2=BILLIE JO SPEARS - Never Did Like Whiskey
TTITLE3=GEORGE JONES - Bubbles In My Beer
TTITLE4=EMILIO - Honky Tonk Habits
TTITLE5=BILLY DEAN - Misery And Gin
TTITLE6=MERLE HAGGARD - Drink Up And Be Somebody
TTITLE7=HANK THOMPSON - Hangover Tavern
TTITLE8=GEORGE JONES - The Warm Red Wine
TTITLE9=WANDA JACKSON - A Tears Will Be The Chaser For Your Wine
TTITLE10=CRYSTAL GAYLE - Paintin' This Old Town Blue
TTITLE11=DIANE PFEIFER - Wishful Drinkin'
TTITLE12=BILLIE JO SPEARS - Your Good Girl's Gonna Go Bad
TTITLE13=STONEY EDWARDS - Honky Tonk Heaven
TTITLE14=DEAN MILLER - Wake Up And Smell The Whiskey
TTITLE15=HANK THOMPSON - A Six Pack To Go
TTITLE16=KEY ADAMS - Alcohol And Tears
TTITLE17=ASLEEP AT THE WHEEL - The Letter That Johnny Walker Read
TTITLE18=BIG BILL LISTER - There's A Tear In My Beer
TTITLE19=WANDA JACKSON - Two Separate Barstools
EXTD=YEAR: 1998 ID3G: 2
EXTT0=
EXTT1=
EXTT2=
EXTT3=
EXTT4=
EXTT5=
EXTT6=
EXTT7=
EXTT8=
EXTT9=
EXTT10=
EXTT11=
EXTT12=
EXTT13=
EXTT14=
EXTT15=
EXTT16=
EXTT17=
EXTT18=
EXTT19=
PLAYORDER=
